<svg xmlns="http://www.w3.org/2000/svg" xmlns:xlink="http://www.w3.org/1999/xlink" width="500" zoomAndPan="magnify" viewBox="0 0 375 187.499995" height="250" preserveAspectRatio="xMidYMid meet" version="1.0"><defs><g/><clipPath id="ee49f07bcf"><path d="M 0.5 0 L 374.5 0 L 374.5 187 L 0.5 187 Z M 0.5 0 " clip-rule="nonzero"/></clipPath></defs><g clip-path="url(#ee49f07bcf)"><path fill="#ffffff" d="M 0.5 0 L 374.5 0 L 374.5 187 L 0.5 187 Z M 0.5 0 " fill-opacity="1" fill-rule="nonzero"/><path fill="#ffffff" d="M 0.5 0 L 374.5 0 L 374.5 187 L 0.5 187 Z M 0.5 0 " fill-opacity="1" fill-rule="nonzero"/></g><g fill="#004aad" fill-opacity="0.4"><g transform="translate(5.909474, 122.157824)"><g><path d="M 26.265625 -49.90625 C 31.941406 -49.90625 36.441406 -48.035156 39.765625 -44.296875 C 42.640625 -41.023438 44.078125 -37.210938 44.078125 -32.859375 C 44.078125 -28.609375 42.742188 -24.898438 40.078125 -21.734375 C 36.753906 -17.835938 32.097656 -15.890625 26.109375 -15.890625 L 14.28125 -15.890625 L 14.28125 0 L 2.296875 0 L 2.296875 -49.90625 Z M 31.859375 -28.640625 C 32.367188 -29.253906 32.753906 -29.972656 33.015625 -30.796875 C 33.222656 -31.503906 33.328125 -32.191406 33.328125 -32.859375 C 33.328125 -33.523438 33.195312 -34.242188 32.9375 -35.015625 C 32.632812 -35.828125 32.222656 -36.539062 31.703125 -37.15625 C 30.523438 -38.488281 28.710938 -39.15625 26.265625 -39.15625 L 14.28125 -39.15625 L 14.28125 -26.640625 L 26.109375 -26.640625 C 27.691406 -26.640625 29.019531 -26.867188 30.09375 -27.328125 C 30.8125 -27.742188 31.398438 -28.179688 31.859375 -28.640625 Z M 31.859375 -28.640625 "/></g></g></g><g fill="#004aad" fill-opacity="0.4"><g transform="translate(52.274912, 122.157824)"><g><path d="M 13.046875 -33.625 C 13.921875 -36.082031 15.378906 -37.800781 17.421875 -38.78125 C 19.421875 -39.75 22.414062 -40.234375 26.40625 -40.234375 L 26.40625 -29.25 C 22.519531 -29.25 19.269531 -27.921875 16.65625 -25.265625 C 14.25 -22.910156 13.046875 -20.320312 13.046875 -17.5 L 13.046875 0 L 2.296875 0 L 2.296875 -39.546875 L 13.046875 -39.546875 Z M 13.046875 -33.625 "/></g></g></g><g fill="#004aad" fill-opacity="0.4"><g transform="translate(79.833169, 122.157824)"><g><path d="M 20.5 -39.546875 C 25.976562 -39.597656 30.632812 -37.703125 34.46875 -33.859375 C 38.363281 -29.972656 40.3125 -25.316406 40.3125 -19.890625 C 40.363281 -14.410156 38.46875 -9.75 34.625 -5.90625 C 30.789062 -2.019531 26.160156 -0.0507812 20.734375 0 C 15.253906 0.0507812 10.570312 -1.84375 6.6875 -5.6875 C 2.789062 -9.519531 0.84375 -14.175781 0.84375 -19.65625 C 0.789062 -25.132812 2.6875 -29.789062 6.53125 -33.625 C 10.363281 -37.519531 15.019531 -39.492188 20.5 -39.546875 Z M 27.484375 -12.90625 C 29.378906 -14.789062 30.328125 -17.09375 30.328125 -19.8125 C 30.328125 -22.46875 29.351562 -24.769531 27.40625 -26.71875 C 25.46875 -28.5625 23.164062 -29.484375 20.5 -29.484375 C 17.84375 -29.484375 15.566406 -28.535156 13.671875 -26.640625 C 11.773438 -24.648438 10.828125 -22.347656 10.828125 -19.734375 C 10.828125 -17.066406 11.800781 -14.765625 13.75 -12.828125 C 15.632812 -10.929688 17.9375 -9.984375 20.65625 -9.984375 C 23.414062 -10.085938 25.691406 -11.0625 27.484375 -12.90625 Z M 27.484375 -12.90625 "/></g></g></g><g fill="#004aad" fill-opacity="0.4"><g transform="translate(120.978652, 122.157824)"><g><path d="M 34.546875 0 L 22.1875 -12.28125 L 9.90625 0 L 2.296875 -7.59375 L 14.59375 -19.890625 L 2.296875 -32.25 L 9.90625 -39.84375 L 22.1875 -27.484375 L 34.546875 -39.84375 L 42.15625 -32.25 L 29.796875 -19.890625 L 42.15625 -7.59375 Z M 34.546875 0 "/></g></g></g><g fill="#004aad" fill-opacity="0.4"><g transform="translate(165.424987, 122.157824)"><g><path d="M 12.96875 -53.515625 L 12.96875 -44.453125 L 2.296875 -44.453125 L 2.296875 -53.515625 Z M 13.046875 -39.46875 L 13.046875 0 L 2.296875 0 L 2.296875 -39.46875 Z M 13.046875 -39.46875 "/></g></g></g><g fill="#5a73e4" fill-opacity="1"><g transform="translate(5.366554, 121.614904)"><g><path d="M 26.265625 -49.90625 C 31.941406 -49.90625 36.441406 -48.035156 39.765625 -44.296875 C 42.640625 -41.023438 44.078125 -37.210938 44.078125 -32.859375 C 44.078125 -28.609375 42.742188 -24.898438 40.078125 -21.734375 C 36.753906 -17.835938 32.097656 -15.890625 26.109375 -15.890625 L 14.28125 -15.890625 L 14.28125 0 L 2.296875 0 L 2.296875 -49.90625 Z M 31.859375 -28.640625 C 32.367188 -29.253906 32.753906 -29.972656 33.015625 -30.796875 C 33.222656 -31.503906 33.328125 -32.191406 33.328125 -32.859375 C 33.328125 -33.523438 33.195312 -34.242188 32.9375 -35.015625 C 32.632812 -35.828125 32.222656 -36.539062 31.703125 -37.15625 C 30.523438 -38.488281 28.710938 -39.15625 26.265625 -39.15625 L 14.28125 -39.15625 L 14.28125 -26.640625 L 26.109375 -26.640625 C 27.691406 -26.640625 29.019531 -26.867188 30.09375 -27.328125 C 30.8125 -27.742188 31.398438 -28.179688 31.859375 -28.640625 Z M 31.859375 -28.640625 "/></g></g></g><g fill="#5a73e4" fill-opacity="1"><g transform="translate(51.731991, 121.614904)"><g><path d="M 13.046875 -33.625 C 13.921875 -36.082031 15.378906 -37.800781 17.421875 -38.78125 C 19.421875 -39.75 22.414062 -40.234375 26.40625 -40.234375 L 26.40625 -29.25 C 22.519531 -29.25 19.269531 -27.921875 16.65625 -25.265625 C 14.25 -22.910156 13.046875 -20.320312 13.046875 -17.5 L 13.046875 0 L 2.296875 0 L 2.296875 -39.546875 L 13.046875 -39.546875 Z M 13.046875 -33.625 "/></g></g></g><g fill="#5a73e4" fill-opacity="1"><g transform="translate(79.290249, 121.614904)"><g><path d="M 20.5 -39.546875 C 25.976562 -39.597656 30.632812 -37.703125 34.46875 -33.859375 C 38.363281 -29.972656 40.3125 -25.316406 40.3125 -19.890625 C 40.363281 -14.410156 38.46875 -9.75 34.625 -5.90625 C 30.789062 -2.019531 26.160156 -0.0507812 20.734375 0 C 15.253906 0.0507812 10.570312 -1.84375 6.6875 -5.6875 C 2.789062 -9.519531 0.84375 -14.175781 0.84375 -19.65625 C 0.789062 -25.132812 2.6875 -29.789062 6.53125 -33.625 C 10.363281 -37.519531 15.019531 -39.492188 20.5 -39.546875 Z M 27.484375 -12.90625 C 29.378906 -14.789062 30.328125 -17.09375 30.328125 -19.8125 C 30.328125 -22.46875 29.351562 -24.769531 27.40625 -26.71875 C 25.46875 -28.5625 23.164062 -29.484375 20.5 -29.484375 C 17.84375 -29.484375 15.566406 -28.535156 13.671875 -26.640625 C 11.773438 -24.648438 10.828125 -22.347656 10.828125 -19.734375 C 10.828125 -17.066406 11.800781 -14.765625 13.75 -12.828125 C 15.632812 -10.929688 17.9375 -9.984375 20.65625 -9.984375 C 23.414062 -10.085938 25.691406 -11.0625 27.484375 -12.90625 Z M 27.484375 -12.90625 "/></g></g></g><g fill="#5a73e4" fill-opacity="1"><g transform="translate(120.435732, 121.614904)"><g><path d="M 34.546875 0 L 22.1875 -12.28125 L 9.90625 0 L 2.296875 -7.59375 L 14.59375 -19.890625 L 2.296875 -32.25 L 9.90625 -39.84375 L 22.1875 -27.484375 L 34.546875 -39.84375 L 42.15625 -32.25 L 29.796875 -19.890625 L 42.15625 -7.59375 Z M 34.546875 0 "/></g></g></g><g fill="#5a73e4" fill-opacity="1"><g transform="translate(164.882067, 121.614904)"><g><path d="M 12.96875 -53.515625 L 12.96875 -44.453125 L 2.296875 -44.453125 L 2.296875 -53.515625 Z M 13.046875 -39.46875 L 13.046875 0 L 2.296875 0 L 2.296875 -39.46875 Z M 13.046875 -39.46875 "/></g></g></g><g fill="#004aad" fill-opacity="0.4"><g transform="translate(180.77908, 122.157824)"><g><path d="M 50.671875 -39.625 C 55.992188 -39.675781 60.320312 -38.085938 63.65625 -34.859375 C 67.238281 -31.484375 69.03125 -26.75 69.03125 -20.65625 L 69.03125 0 L 59.046875 0 L 59.046875 -19.96875 C 59.046875 -20.726562 58.914062 -21.597656 58.65625 -22.578125 C 58.300781 -23.753906 57.816406 -24.800781 57.203125 -25.71875 C 55.566406 -28.332031 53.160156 -29.640625 49.984375 -29.640625 C 46.609375 -29.640625 44.148438 -28.332031 42.609375 -25.71875 C 42.046875 -24.75 41.640625 -23.648438 41.390625 -22.421875 C 41.179688 -21.546875 41.078125 -20.675781 41.078125 -19.8125 L 41.078125 0 L 31.015625 0 L 31.015625 -19.96875 C 31.015625 -20.726562 30.890625 -21.597656 30.640625 -22.578125 C 30.328125 -23.753906 29.863281 -24.800781 29.25 -25.71875 C 27.5625 -28.332031 25.15625 -29.640625 22.03125 -29.640625 C 18.601562 -29.640625 16.125 -28.332031 14.59375 -25.71875 C 14.03125 -24.75 13.617188 -23.648438 13.359375 -22.421875 C 13.148438 -21.546875 13.046875 -20.675781 13.046875 -19.8125 L 13.046875 0 L 2.296875 0 L 2.296875 -39.703125 L 13.046875 -39.703125 L 13.046875 -35.546875 C 15.554688 -38.265625 18.785156 -39.625 22.734375 -39.625 C 28.515625 -39.71875 33.195312 -37.488281 36.78125 -32.9375 L 40 -35.9375 C 43.019531 -38.394531 46.578125 -39.625 50.671875 -39.625 Z M 50.671875 -39.625 "/></g></g></g><g fill="#004aad" fill-opacity="0.4"><g transform="translate(252.092803, 122.157824)"><g><path d="M 30.71875 -39.703125 L 41.46875 -39.703125 L 41.46875 0 L 30.71875 0 L 30.71875 -4.453125 C 28.507812 -1.585938 25.179688 -0.15625 20.734375 -0.15625 C 15.304688 -0.101562 10.644531 -1.992188 6.75 -5.828125 C 2.863281 -9.671875 0.894531 -14.332031 0.84375 -19.8125 C 0.789062 -25.238281 2.6875 -29.894531 6.53125 -33.78125 C 10.363281 -37.675781 15.019531 -39.648438 20.5 -39.703125 C 25 -39.703125 28.40625 -38.238281 30.71875 -35.3125 Z M 27.484375 -13.046875 C 29.378906 -14.941406 30.328125 -17.25 30.328125 -19.96875 C 30.328125 -22.726562 29.351562 -25.03125 27.40625 -26.875 C 25.46875 -28.820312 23.191406 -29.742188 20.578125 -29.640625 C 17.867188 -29.640625 15.566406 -28.691406 13.671875 -26.796875 C 11.773438 -24.898438 10.828125 -22.597656 10.828125 -19.890625 C 10.828125 -17.222656 11.800781 -14.914062 13.75 -12.96875 C 15.632812 -11.082031 17.9375 -10.140625 20.65625 -10.140625 C 23.414062 -10.234375 25.691406 -11.203125 27.484375 -13.046875 Z M 27.484375 -13.046875 "/></g></g></g><g fill="#004aad" fill-opacity="0.4"><g transform="translate(295.848258, 122.157824)"><g><path d="M 30.796875 -39.546875 L 30.796875 -28.796875 L 21.953125 -28.796875 L 21.953125 0 L 11.203125 0 L 11.203125 -28.796875 L 2.296875 -28.796875 L 2.296875 -39.546875 L 11.203125 -39.546875 L 11.203125 -53.359375 L 21.953125 -53.359375 L 21.953125 -39.546875 Z M 30.796875 -39.546875 "/></g></g></g><g fill="#004aad" fill-opacity="0.4"><g transform="translate(328.93352, 122.157824)"><g><path d="M 40.390625 -18.046875 C 40.441406 -16.972656 40.441406 -16.332031 40.390625 -16.125 L 11.515625 -16.203125 C 11.921875 -15.023438 12.664062 -13.898438 13.75 -12.828125 C 15.738281 -10.929688 18.039062 -9.984375 20.65625 -9.984375 C 23.414062 -10.085938 25.71875 -11.0625 27.5625 -12.90625 L 27.875 -13.203125 L 37.859375 -10.0625 C 35.648438 -6.625 33.34375 -4.164062 30.9375 -2.6875 C 28.226562 -0.945312 24.828125 -0.0507812 20.734375 0 C 15.304688 0.0507812 10.644531 -1.84375 6.75 -5.6875 C 2.863281 -9.519531 0.894531 -14.175781 0.84375 -19.65625 C 0.789062 -25.082031 2.6875 -29.738281 6.53125 -33.625 C 10.363281 -37.519531 15.019531 -39.492188 20.5 -39.546875 C 25.925781 -39.597656 30.582031 -37.703125 34.46875 -33.859375 C 38.363281 -30.023438 40.335938 -25.367188 40.390625 -19.890625 Z M 20.578125 -29.484375 C 17.867188 -29.484375 15.566406 -28.535156 13.671875 -26.640625 C 12.691406 -25.566406 12 -24.492188 11.59375 -23.421875 L 29.640625 -23.421875 C 29.222656 -24.492188 28.503906 -25.59375 27.484375 -26.71875 C 25.535156 -28.5625 23.234375 -29.484375 20.578125 -29.484375 Z M 20.578125 -29.484375 "/></g></g></g><g fill="#00bf63" fill-opacity="1"><g transform="translate(180.23616, 121.614904)"><g><path d="M 50.671875 -39.625 C 55.992188 -39.675781 60.320312 -38.085938 63.65625 -34.859375 C 67.238281 -31.484375 69.03125 -26.75 69.03125 -20.65625 L 69.03125 0 L 59.046875 0 L 59.046875 -19.96875 C 59.046875 -20.726562 58.914062 -21.597656 58.65625 -22.578125 C 58.300781 -23.753906 57.816406 -24.800781 57.203125 -25.71875 C 55.566406 -28.332031 53.160156 -29.640625 49.984375 -29.640625 C 46.609375 -29.640625 44.148438 -28.332031 42.609375 -25.71875 C 42.046875 -24.75 41.640625 -23.648438 41.390625 -22.421875 C 41.179688 -21.546875 41.078125 -20.675781 41.078125 -19.8125 L 41.078125 0 L 31.015625 0 L 31.015625 -19.96875 C 31.015625 -20.726562 30.890625 -21.597656 30.640625 -22.578125 C 30.328125 -23.753906 29.863281 -24.800781 29.25 -25.71875 C 27.5625 -28.332031 25.15625 -29.640625 22.03125 -29.640625 C 18.601562 -29.640625 16.125 -28.332031 14.59375 -25.71875 C 14.03125 -24.75 13.617188 -23.648438 13.359375 -22.421875 C 13.148438 -21.546875 13.046875 -20.675781 13.046875 -19.8125 L 13.046875 0 L 2.296875 0 L 2.296875 -39.703125 L 13.046875 -39.703125 L 13.046875 -35.546875 C 15.554688 -38.265625 18.785156 -39.625 22.734375 -39.625 C 28.515625 -39.71875 33.195312 -37.488281 36.78125 -32.9375 L 40 -35.9375 C 43.019531 -38.394531 46.578125 -39.625 50.671875 -39.625 Z M 50.671875 -39.625 "/></g></g></g><g fill="#00bf63" fill-opacity="1"><g transform="translate(251.549883, 121.614904)"><g><path d="M 30.71875 -39.703125 L 41.46875 -39.703125 L 41.46875 0 L 30.71875 0 L 30.71875 -4.453125 C 28.507812 -1.585938 25.179688 -0.15625 20.734375 -0.15625 C 15.304688 -0.101562 10.644531 -1.992188 6.75 -5.828125 C 2.863281 -9.671875 0.894531 -14.332031 0.84375 -19.8125 C 0.789062 -25.238281 2.6875 -29.894531 6.53125 -33.78125 C 10.363281 -37.675781 15.019531 -39.648438 20.5 -39.703125 C 25 -39.703125 28.40625 -38.238281 30.71875 -35.3125 Z M 27.484375 -13.046875 C 29.378906 -14.941406 30.328125 -17.25 30.328125 -19.96875 C 30.328125 -22.726562 29.351562 -25.03125 27.40625 -26.875 C 25.46875 -28.820312 23.191406 -29.742188 20.578125 -29.640625 C 17.867188 -29.640625 15.566406 -28.691406 13.671875 -26.796875 C 11.773438 -24.898438 10.828125 -22.597656 10.828125 -19.890625 C 10.828125 -17.222656 11.800781 -14.914062 13.75 -12.96875 C 15.632812 -11.082031 17.9375 -10.140625 20.65625 -10.140625 C 23.414062 -10.234375 25.691406 -11.203125 27.484375 -13.046875 Z M 27.484375 -13.046875 "/></g></g></g><g fill="#00bf63" fill-opacity="1"><g transform="translate(295.305338, 121.614904)"><g><path d="M 30.796875 -39.546875 L 30.796875 -28.796875 L 21.953125 -28.796875 L 21.953125 0 L 11.203125 0 L 11.203125 -28.796875 L 2.296875 -28.796875 L 2.296875 -39.546875 L 11.203125 -39.546875 L 11.203125 -53.359375 L 21.953125 -53.359375 L 21.953125 -39.546875 Z M 30.796875 -39.546875 "/></g></g></g><g fill="#00bf63" fill-opacity="1"><g transform="translate(328.3906, 121.614904)"><g><path d="M 40.390625 -18.046875 C 40.441406 -16.972656 40.441406 -16.332031 40.390625 -16.125 L 11.515625 -16.203125 C 11.921875 -15.023438 12.664062 -13.898438 13.75 -12.828125 C 15.738281 -10.929688 18.039062 -9.984375 20.65625 -9.984375 C 23.414062 -10.085938 25.71875 -11.0625 27.5625 -12.90625 L 27.875 -13.203125 L 37.859375 -10.0625 C 35.648438 -6.625 33.34375 -4.164062 30.9375 -2.6875 C 28.226562 -0.945312 24.828125 -0.0507812 20.734375 0 C 15.304688 0.0507812 10.644531 -1.84375 6.75 -5.6875 C 2.863281 -9.519531 0.894531 -14.175781 0.84375 -19.65625 C 0.789062 -25.082031 2.6875 -29.738281 6.53125 -33.625 C 10.363281 -37.519531 15.019531 -39.492188 20.5 -39.546875 C 25.925781 -39.597656 30.582031 -37.703125 34.46875 -33.859375 C 38.363281 -30.023438 40.335938 -25.367188 40.390625 -19.890625 Z M 20.578125 -29.484375 C 17.867188 -29.484375 15.566406 -28.535156 13.671875 -26.640625 C 12.691406 -25.566406 12 -24.492188 11.59375 -23.421875 L 29.640625 -23.421875 C 29.222656 -24.492188 28.503906 -25.59375 27.484375 -26.71875 C 25.535156 -28.5625 23.234375 -29.484375 20.578125 -29.484375 Z M 20.578125 -29.484375 "/></g></g></g></svg>